<?xml version="1.0" encoding="UTF-8" standalone="no"?>
<svg width="26px" height="22px" viewBox="0 0 26 22" version="1.1" xmlns="http://www.w3.org/2000/svg" xmlns:xlink="http://www.w3.org/1999/xlink" xmlns:sketch="http://www.bohemiancoding.com/sketch/ns">
    <!-- Generator: Sketch 3.4.1 (15681) - http://www.bohemiancoding.com/sketch -->
    <title>Monogram</title>
    <desc>Created with Sketch.</desc>
    <defs></defs>
    <g id="Page-1" stroke="none" stroke-width="1" fill="none" fill-rule="evenodd" sketch:type="MSPage">
        <g id="Desktop-Styleguide" sketch:type="MSArtboardGroup" transform="translate(-248.000000, -861.000000)" fill="#FFFFFF">
            <path d="M271.688017,876.637286 C270.765017,880.796857 268.663052,882.799531 264.279138,882.799531 C261.920759,882.799531 258.049672,881.720857 258.049672,878.742551 C258.049672,877.638735 259.229086,877.150918 260.177414,877.176061 L260.613138,877.176061 C260.587362,876.739878 260.613138,876.277653 260.664466,875.84102 L248,875.84102 L250.358379,864.697347 C250.409931,864.492163 250.435483,864.312122 250.435483,864.106939 C250.435483,862.746082 249.282069,862.283633 248.128207,862.155449 L248.384621,861 L255.716621,861 L253.357793,872.01549 L258.74181,872.01549 C258.844466,871.501857 259.023776,870.962633 259.023776,870.449 C259.023776,869.164918 257.81881,868.600327 256.690948,868.49751 L256.97269,867.342061 L264.381569,867.342061 L262.587121,875.635612 C262.510241,875.969429 262.458914,876.30302 262.458914,876.637286 C262.458914,878.100735 263.356362,878.845367 264.76619,878.845367 C266.509534,878.845367 267.124793,877.433327 267.432534,875.943837 C267.7145,874.557163 268.534621,871.758224 268.534621,870.474592 C268.534621,869.164918 267.355431,868.600327 266.227345,868.49751 L266.509534,867.342061 L273.688,867.342061 L271.688017,876.637286" id="Monogram" sketch:type="MSShapeGroup"></path>
        </g>
    </g>
</svg>
